<?xml version="1.0" encoding="UTF-8"?>
<svg version="1.1" xmlns="http://www.w3.org/2000/svg" width="658" height="702">
<path d="M0 0 C0.62841797 0.44585449 1.25683594 0.89170898 1.90429688 1.35107422 C10.19351427 7.26573308 18.20609096 13.44251846 26 20 C26.97195313 20.78632812 27.94390625 21.57265625 28.9453125 22.3828125 C37.18659386 29.13883521 44.76625546 36.55116306 52.3125 44.0625 C53.08018204 44.82241745 53.08018204 44.82241745 53.8633728 45.59768677 C60.71576095 52.39539539 66.9796741 59.44084291 73 67 C74.55950185 68.8150803 76.12133812 70.62816326 77.6875 72.4375 C90.16485811 87.44509637 100.50354749 103.98779184 110 121 C110.81815186 122.46348877 110.81815186 122.46348877 111.65283203 123.95654297 C130.45040567 157.94886795 142.7029808 195.00739237 149.25 233.25 C149.47659302 234.55783447 149.47659302 234.55783447 149.70776367 235.89208984 C152.61056608 253.90485473 153.37865043 271.90745392 153.3125 290.125 C153.31034485 291.19949402 153.3081897 292.27398804 153.30596924 293.38104248 C153.25333507 309.77278213 152.75624528 325.80644481 150 342 C149.69400879 343.83304687 149.69400879 343.83304687 149.38183594 345.703125 C142.71127469 384.69726472 130.31689563 420.97085756 112 456 C111.64389648 456.68707031 111.28779297 457.37414062 110.92089844 458.08203125 C91.71798738 494.84140955 63.12759513 530.55350401 31 557 C29.83210937 557.98419922 29.83210937 557.98419922 28.640625 558.98828125 C9.20463086 575.17535921 -11.61829578 589.20838404 -34 601 C-34.97235596 601.51506104 -34.97235596 601.51506104 -35.96435547 602.04052734 C-72.96587852 621.49356879 -113.44283989 634.22942214 -155 639 C-155.73841125 639.08506805 -156.47682251 639.17013611 -157.23760986 639.25778198 C-170.67856685 640.76960881 -183.97879033 641.36689721 -197.5 641.3125 C-198.45122742 641.31067719 -199.40245483 641.30885437 -200.38250732 641.30697632 C-225.74424621 641.22570397 -250.2104261 638.4432353 -275 633 C-276.30275879 632.71817871 -276.30275879 632.71817871 -277.63183594 632.43066406 C-299.40928266 627.63021313 -320.72049186 620.24248496 -341 611 C-341.88574707 610.60087402 -342.77149414 610.20174805 -343.68408203 609.79052734 C-358.37646555 603.12743601 -372.30079243 595.51253045 -386 587 C-387.09054687 586.32710937 -388.18109375 585.65421875 -389.3046875 584.9609375 C-407.49548476 573.26317269 -425.20494092 559.31189588 -440.2578125 543.7421875 C-442.03337195 541.96662805 -443.88968202 540.36393156 -445.8125 538.75 C-465.94051506 521.373862 -481.64988329 498.10242816 -496 476 C-496.46873535 475.28021973 -496.9374707 474.56043945 -497.42041016 473.81884766 C-498.60442886 471.99047115 -499.77499072 470.15460549 -500.9375 468.3125 C-501.56527344 467.31863281 -502.19304687 466.32476563 -502.83984375 465.30078125 C-503.22269531 464.54152344 -503.60554688 463.78226563 -504 463 C-503.67 462.34 -503.34 461.68 -503 461 C-502.61255615 461.47832275 -502.2251123 461.95664551 -501.82592773 462.44946289 C-500.03384142 464.65713634 -498.23571846 466.85981903 -496.4375 469.0625 C-495.82841797 469.81466797 -495.21933594 470.56683594 -494.59179688 471.34179688 C-490.63498075 476.17790547 -486.4901569 480.65817682 -482 485 C-479.55418556 487.43859964 -477.11593285 489.88050608 -474.7109375 492.359375 C-446.70173 521.02431646 -409.46229176 541.67056757 -372 555 C-371.14841309 555.3098584 -370.29682617 555.6197168 -369.41943359 555.93896484 C-320.12600143 573.77659202 -267.00873126 579.15142932 -214.875 576.25 C-214.10230774 576.20709839 -213.32961548 576.16419678 -212.5335083 576.11999512 C-187.88155022 574.70900608 -163.93145891 571.16098133 -140 565 C-139.15518066 564.78730469 -138.31036133 564.57460938 -137.43994141 564.35546875 C-107.15842853 556.68142911 -67.19107329 544.03232611 -49 517 C-39.51696354 500.93689743 -36.79696485 483.25497358 -41 465 C-43.36589686 457.03696191 -46.79415871 450.20373494 -51.44921875 443.33984375 C-53 441 -53 441 -53.95703125 438.81640625 C-55.28985347 436.49519901 -56.5961915 436.09386791 -59 435 C-60.15127825 433.96603209 -61.27459737 432.90045464 -62.375 431.8125 C-73.94887287 421.48869161 -89.73767597 417.01762393 -105 417 C-118.85398388 417.86391056 -130.78338986 422.74084911 -142.97924805 428.98242188 C-190.66568097 453.26871453 -251.44936573 455.38397834 -301.96484375 439.17578125 C-321.80870478 432.31589361 -339.50944369 422.38627647 -354.81640625 408.0078125 C-356.99741423 405.94540471 -356.99741423 405.94540471 -359.50390625 404.0625 C-373.75433091 392.28750122 -383.79796221 373.31562889 -390.375 356.3125 C-390.70878662 355.45809326 -391.04257324 354.60368652 -391.38647461 353.72338867 C-393.05674087 349.24171513 -394.2874733 344.89392469 -395.10400391 340.17651367 C-395.27461334 339.20227951 -395.44522278 338.22804535 -395.6210022 337.22428894 C-395.74607147 336.49027359 -395.87114075 335.75625824 -396 335 C-394.7646796 334.99853479 -394.7646796 334.99853479 -393.50440323 334.99703997 C-344.69536419 334.93876919 -295.88636968 334.86497332 -247.07738561 334.77101372 C-241.2169552 334.75974554 -235.35652456 334.74860709 -229.49609375 334.73754883 C-228.32938648 334.73534514 -227.16267921 334.73314146 -225.96061717 334.730871 C-207.06895619 334.69549769 -188.17729525 334.67063374 -169.28561343 334.64965298 C-149.90130592 334.62789122 -130.51704138 334.59483718 -111.13277042 334.55129844 C-99.17145417 334.52478826 -87.21019147 334.5070882 -75.24884729 334.50065396 C-67.04673883 334.49539816 -58.84469776 334.47917467 -50.64262541 334.45433434 C-45.91033101 334.44032603 -41.17815725 334.43114607 -36.44584084 334.43499184 C-32.11029011 334.4384083 -27.77499679 334.42800131 -23.43949877 334.40676448 C-21.87406413 334.40150704 -20.30860268 334.40125069 -18.74316837 334.40660437 C-4.25191437 334.45110141 7.53008707 332.19622526 18.296875 321.77734375 C27.61402788 311.00657491 29.83191728 299.32848287 29.5 285.4375 C29.48168598 283.98787948 29.46378971 282.53825362 29.44628906 281.08862305 C28.25325678 210.19576487 3.54434415 139.4964579 -46 88 C-46.59973633 87.37303223 -47.19947266 86.74606445 -47.81738281 86.10009766 C-56.65718318 76.9066163 -65.7137367 68.53954666 -76 61 C-76.56928223 60.57525391 -77.13856445 60.15050781 -77.72509766 59.71289062 C-131.35214597 19.73828794 -201.31400457 0.01186978 -268 3 C-269.07233887 3.04640625 -270.14467773 3.0928125 -271.24951172 3.140625 C-318.00926883 5.32212725 -362.93790633 15.04813633 -405 36 C-405.78117187 36.38510742 -406.56234375 36.77021484 -407.3671875 37.16699219 C-424.41656874 45.63933822 -440.37174826 55.81771296 -455 68 C-455.57508301 68.47356934 -456.15016602 68.94713867 -456.74267578 69.43505859 C-462.59452483 74.25833201 -468.32887854 79.12241299 -473.59375 84.59375 C-475 86 -475 86 -477.5 87.9375 C-481.11596407 90.92067035 -483.9734771 94.43108949 -487 98 C-488.03836312 99.21153727 -489.07748628 100.42242336 -490.1171875 101.6328125 C-493.08212514 105.08513116 -496.04201054 108.5417266 -499 112 C-499 108.70529513 -498.52924789 107.86437482 -496.83203125 105.1484375 C-496.12071045 104.00834229 -496.12071045 104.00834229 -495.39501953 102.84521484 C-494.87278809 102.03004395 -494.35055664 101.21487305 -493.8125 100.375 C-493.27222168 99.52760254 -492.73194336 98.68020508 -492.17529297 97.80712891 C-486.58296303 89.16326543 -480.43614965 81.02768752 -474 73 C-473.40864258 72.25911133 -472.81728516 71.51822266 -472.20800781 70.75488281 C-466.10147931 63.13234081 -459.99354466 55.66082666 -452.9296875 48.89453125 C-451.05403281 47.05304841 -449.37454764 45.13896357 -447.6875 43.125 C-443.35744503 38.08164131 -438.39443078 33.7151374 -433.44726562 29.29443359 C-432.15205591 28.13599873 -430.86456272 26.9689497 -429.578125 25.80078125 C-377.04500192 -21.60943089 -310.47592728 -49.04360727 -241 -59 C-239.62303955 -59.20133545 -239.62303955 -59.20133545 -238.21826172 -59.40673828 C-156.4523148 -70.74584268 -66.96288186 -47.58962285 0 0 Z " fill="#4E565A" transform="translate(505,61)"/>
<path d="M0 0 C0.68449219 0.55042969 1.36898437 1.10085937 2.07421875 1.66796875 C24.56900012 20.27367201 38.79505259 50.71224234 44 79 C44 80.98 44 82.96 44 85 C-47.08 85 -138.16 85 -232 85 C-231.2693453 77.693453 -230.43648394 71.85729052 -228.4375 65 C-228.17428955 64.09499756 -227.9110791 63.18999512 -227.63989258 62.25756836 C-222.096419 43.89330705 -213.29003586 27.73139739 -201 13 C-200.39800781 12.26394531 -199.79601562 11.52789062 -199.17578125 10.76953125 C-194.04443403 4.72224376 -188.27157261 -0.16907749 -182 -5 C-180.70255859 -6.0209375 -180.70255859 -6.0209375 -179.37890625 -7.0625 C-160.69752696 -21.27478261 -138.17357924 -29.0749345 -115 -32 C-114.09378906 -32.12890625 -113.18757813 -32.2578125 -112.25390625 -32.390625 C-71.62525891 -37.20775011 -31.23209359 -26.41874117 0 0 Z " fill="#4E565A" transform="translate(339,218)"/>
<path d="" fill="#4E565A" transform="translate(0,0)"/>
<path d="" fill="#4E565A" transform="translate(0,0)"/>
</svg>
